<?xml version="1.0"?>
<svg width="24" height="24" xmlns="http://www.w3.org/2000/svg" xmlns:svg="http://www.w3.org/2000/svg">
 <g class="layer">
  <title>Layer 1</title>
  <path d="m23.1,7.71c0.53,0 0.9,-0.48 0.9,-1.01l0,-0.69c0,-0.53 -0.39,-1.06 -0.91,-1.18l-7.48,-1.67c-0.66,-1.28 -2,-2.16 -3.55,-2.16c-1.54,0 -2.88,0.88 -3.55,2.16l-7.55,1.67c-0.52,0.12 -0.96,0.65 -0.96,1.18l0,0.69c0,0.53 0.46,1.01 1,1.01l0.37,0l0,13.25l-0.7,0c-0.35,0 -0.67,0.29 -0.67,0.65l0,0.08c0,0.35 0.32,0.64 0.67,0.64l22.71,0c0.36,0 0.62,-0.29 0.62,-0.64l0,-0.08c0,-0.36 -0.26,-0.65 -0.62,-0.65l-0.67,0l0,-13.25l0.39,0zm-10.43,-0.46c0,-0.9 -0.6,-1.78 -0.6,-1.78c0,0 -0.61,0.88 -0.61,1.78c-1.52,0 -1.82,-1.5 -1.21,-2.41c0.32,-0.48 0.99,-1.03 0.97,-1.96c0,-0.21 0.23,-0.36 0.42,-0.26c0.25,0.12 0.53,0.32 0.72,0.6c0.64,0.98 0.32,1.93 0.32,1.93c0,0 0.41,-0.23 0.76,-0.64c0.13,-0.16 0.39,-0.13 0.48,0.06c0.43,0.91 0.52,2.68 -1.25,2.68zm-4.6,10.42c0,-0.37 0.3,-0.67 0.66,-0.67c0.37,0 0.67,0.3 0.67,0.67c0,0.36 -0.3,0.66 -0.67,0.66c-0.36,0 -0.66,-0.3 -0.66,-0.66zm7.29,0.66c-0.37,0 -0.67,-0.3 -0.67,-0.66c0,-0.37 0.3,-0.67 0.67,-0.67c0.37,0 0.67,0.3 0.67,0.67c0,0.36 -0.3,0.66 -0.67,0.66zm-1.95,-0.04l-2.66,0l0,-1.29l2.66,0l0,1.29zm1.94,-2.58l-2.66,0l0,-2.67l2.66,0l0,2.67zm-4.04,0l-2.66,0l0,-2.67l2.66,0l0,2.67zm-2.66,3.96l6.78,0l0,1.29l-6.78,0l0,-1.29zm10.02,1.29l-1.94,0l0,-1.29c0.4,-0.02 0.64,-0.31 0.64,-0.67l0,-0.04c0,-0.36 -0.24,-0.66 -0.64,-0.67l0,-5.65c0,-0.54 -0.41,-0.97 -0.95,-0.97l-2.45,0l0,-1.38l-2.66,0l0,1.38l-2.32,0c-0.53,0 -1,0.43 -1,0.97l0,5.65c-0.32,0.01 -0.64,0.31 -0.64,0.67l0,0.04c0,0.36 0.32,0.65 0.64,0.67l0,1.29l-1.94,0l0,-13.25l3.71,0c0.73,0.79 1.78,1.29 2.95,1.29c1.16,0 2.21,-0.5 2.94,-1.29l3.66,0l0,13.25z" fill="#f00000" id="svg_1"/>
 </g>
</svg>