<?xml version="1.0"?>
<svg width="24" height="25" xmlns="http://www.w3.org/2000/svg" xmlns:svg="http://www.w3.org/2000/svg">
 <g class="layer">
  <title>Layer 1</title>
  <path d="m20.65,19.4l-1.25,0l0,-7.09c0,-3.84 -3.11,-6.95 -6.95,-6.95c-3.84,0 -6.95,3.11 -6.95,6.95l0,7.09l-1.19,0c-0.62,0 -1.16,0.46 -1.16,1.08l0,2.35c0,0.62 0.54,1.17 1.16,1.17l16.34,0c0.63,0 1.1,-0.55 1.1,-1.17l0,-2.35c0,-0.62 -0.47,-1.08 -1.1,-1.08zm-12.9,-7.05c0,-2.59 2.16,-4.69 4.7,-4.69l0,11.74l-4.7,0l0,-7.05z" fill="#f00000" id="svg_1"/>
  <path d="m12.45,3.85c0.41,0 0.75,-0.34 0.75,-0.75l0,-2.35c0,-0.41 -0.34,-0.75 -0.75,-0.75c-0.42,0 -0.75,0.34 -0.75,0.75l0,2.35c0,0.41 0.33,0.75 0.75,0.75z" fill="#f00000" id="svg_2"/>
  <path d="m4.88,6.5c0.15,0.15 0.34,0.22 0.53,0.22c0.19,0 0.39,-0.07 0.53,-0.22c0.3,-0.29 0.3,-0.77 0,-1.06l-1.66,-1.66c-0.29,-0.3 -0.77,-0.3 -1.06,0c-0.29,0.29 -0.29,0.76 0,1.06l1.66,1.66z" fill="#f00000" id="svg_3"/>
  <path d="m19.55,6.72c0.19,0 0.38,-0.07 0.53,-0.22l1.66,-1.66c0.29,-0.3 0.29,-0.77 0,-1.06c-0.29,-0.3 -0.77,-0.3 -1.06,0l-1.66,1.66c-0.3,0.29 -0.3,0.77 0,1.06c0.14,0.15 0.34,0.22 0.53,0.22z" fill="#f00000" id="svg_4"/>
 </g>
</svg>