<?xml version="1.0"?>
<svg width="24" height="24" xmlns="http://www.w3.org/2000/svg" xmlns:svg="http://www.w3.org/2000/svg">
 <g class="layer">
  <title>Layer 1</title>
  <path d="m12.37,0c-2.59,0 -4.69,2.1 -4.69,4.69l0,2.43c0,2.59 2.1,4.69 4.69,4.69c2.58,0 4.69,-2.1 4.69,-4.69l0,-2.43c0,-2.59 -2.11,-4.69 -4.69,-4.69z" fill="#f00000" id="svg_1"/>
  <path d="m22.71,17.92c-1.5,-2.56 -3.9,-4.45 -6.76,-5.34c-0.07,-0.02 -0.14,0 -0.19,0.05c-1.32,1.31 -2.98,2.33 -3.39,2.57c-0.44,-0.28 -2.3,-1.49 -3.4,-2.57c-0.05,-0.05 -0.12,-0.07 -0.19,-0.05c-2.85,0.89 -5.25,2.78 -6.75,5.34c-0.04,0.06 -0.04,0.13 0,0.19c2.13,3.63 6.09,5.89 10.34,5.89c4.24,0 8.21,-2.26 10.34,-5.89c0.03,-0.06 0.03,-0.13 0,-0.19zm-3.96,1.4c0,0.1 -0.1,0.18 -0.21,0.18l-1.27,0c-0.1,0 -0.21,0.09 -0.21,0.2l0,1.31c0,0.1 -0.06,0.18 -0.16,0.18l-1.14,0c-0.11,0 -0.2,-0.08 -0.2,-0.18l0,-1.31c0,-0.11 -0.07,-0.2 -0.18,-0.2l-1.32,0c-0.11,0 -0.19,-0.08 -0.19,-0.18l0,-1.13c0,-0.1 0.08,-0.19 0.19,-0.19l1.32,0c0.11,0 0.18,-0.08 0.18,-0.19l0,-1.31c0,-0.1 0.09,-0.19 0.2,-0.19l1.13,0c0.1,0 0.17,0.09 0.17,0.19l0,1.32c0,0.1 0.1,0.18 0.2,0.18l1.28,0c0.11,0 0.21,0.09 0.21,0.19l0,1.13z" fill="#f00000" id="svg_2"/>
 </g>
</svg>