<?xml version="1.0"?>
<svg width="24" height="24" xmlns="http://www.w3.org/2000/svg" xmlns:svg="http://www.w3.org/2000/svg">
 <g class="layer">
  <title>Layer 1</title>
  <path d="m14,4.5l0,-1.5l1.5,0l0,-3l-6,0l0,3l1.5,0l0,1.5c-3.31,0 -6,2.69 -6,6l0,10.5c0,0.83 0.67,1.5 1.5,1.5c0,0.83 0.67,1.5 1.49,1.5l8.98,0c0.81,0 1.48,-0.62 1.5,-1.43l0.03,-0.07c0.83,0 1.5,-0.67 1.5,-1.5l0,-10.5c0,-3.31 -2.69,-6 -6,-6l0,0zm-6,6l0,10.5l0,0l-1.5,0l0,-10.5c0,-2.49 2.01,-4.5 4.5,-4.5l1.5,0c-2.49,0 -4.5,2.01 -4.5,4.5l0,0z" fill="#f00000" id="svg_1"/>
 </g>
</svg>