<?xml version="1.0"?>
<svg width="21000" height="21000" xmlns="http://www.w3.org/2000/svg" xmlns:svg="http://www.w3.org/2000/svg" clip-rule="evenodd" enable-background="new 0 0 512 512" fill-rule="evenodd" version="1.1" xml:space="preserve">
 <defs>
  <style type="text/css">
   <![CDATA[
    .fil1 {fill:#f00000}
    .fil0 {fill:#F4F5F5}
   ]]>
  </style>
 </defs>
 <g class="layer">
  <title>Layer 1</title>
  <g id="Слой_x0020_1">
   <metadata id="CorelCorpID_0Corel-Layer"/>
   <circle class="fil0" cx="10492.87" cy="10500.53" id="svg_1" r="10464"/>
   <g id="pet-care.svg">
    <g id="Veterinary_1_">
     <g id="svg_2">
      <path class="fil1" d="m5307.04,10507.12c-875.53,0 -1587.5,-711.97 -1587.5,-1587.5c0,-875.53 711.97,-1587.5 1587.5,-1587.5c875.53,0 1587.5,711.97 1587.5,1587.5c0,875.53 -711.97,1587.5 -1587.5,1587.5z" id="svg_3"/>
     </g>
     <g id="svg_4">
      <path class="fil1" d="m8508.49,8125.87c-875.53,0 -1587.5,-711.97 -1587.5,-1587.5c0,-875.53 711.97,-1587.5 1587.5,-1587.5c875.53,0 1587.5,711.97 1587.5,1587.5c0,875.53 -711.97,1587.5 -1587.5,1587.5z" id="svg_5"/>
     </g>
     <g id="svg_6">
      <path class="fil1" d="m12477.25,8125.87c-875.53,0 -1587.5,-711.97 -1587.5,-1587.5c0,-875.53 711.97,-1587.5 1587.5,-1587.5c875.53,0 1587.5,711.97 1587.5,1587.5c0,875.53 -711.97,1587.5 -1587.5,1587.5z" id="svg_7"/>
     </g>
     <g id="svg_8">
      <path class="fil1" d="m15678.7,10507.12c-875.53,0 -1587.5,-711.97 -1587.5,-1587.5c0,-875.53 711.97,-1587.5 1587.5,-1587.5c875.53,0 1587.5,711.97 1587.5,1587.5c0,875.53 -711.97,1587.5 -1587.5,1587.5z" id="svg_9"/>
     </g>
     <path class="fil1" d="m10492.87,8919.62c-2407.21,0 -4365.63,1958.42 -4365.63,4365.63c0,2778.13 2627.37,2778.13 4365.63,2778.13c1738.26,0 4365.63,0 4365.63,-2778.13c0,-2407.21 -1958.42,-4365.63 -4365.63,-4365.63zm1190.63,3968.75l-793.75,0l0,793.75l-793.76,0l0,-793.75l-793.75,0l0,-793.75l793.75,0l0,-793.75l793.76,0l0,793.75l793.75,0l0,793.75z" id="svg_10"/>
    </g>
   </g>
  </g>
 </g>
</svg>