<?xml version="1.0"?>
<svg width="21000" height="21000" xmlns="http://www.w3.org/2000/svg" xmlns:svg="http://www.w3.org/2000/svg" clip-rule="evenodd" fill-rule="evenodd" version="1.1" xml:space="preserve">
 <defs>
  <style type="text/css">
   <![CDATA[
    .fil1 {fill:#f00000}
    .fil0 {fill:#F4F5F5}
   ]]>
  </style>
 </defs>
 <g class="layer">
  <title>Layer 1</title>
  <g id="Слой_x0020_1">
   <metadata id="CorelCorpID_0Corel-Layer"/>
   <circle class="fil0" cx="10492.87" cy="10500.53" id="svg_1" r="10464"/>
   <g id="cow-silhouette.svg">
    <g id="svg_2">
     <polygon class="fil1" id="svg_3" points="17731.68,8462.21 16241.18,6907.28 16889.91,6493.54 16927.77,6171.08 16626.87,6153.13 15846.49,6714.43 14872.69,6715.28 14276.57,6351.3 14063.05,6394.89 14066.2,6631.52 14450.45,7057.1 14399.79,7280.66 9877.64,7766.99 5193.49,7636.18 4688.71,7847.78 4316.9,8320.24 4125.61,9425.35 4091.81,10219.75 3975.86,10961.53 4007.74,11700.35 4138.14,11727.02 4327.69,11518.33 4481.8,10825.1 4356.89,9863.43 4400.34,9856.89 4693.95,11320.92 4493.96,12591.5 4676.56,15127.31 4693.95,15408.12 4871.9,15559.93 5658.7,15561.15 5912.23,15484.46 5208.32,14338.14 5557.53,12882.43 5740.43,12882.76 6378.56,14818.23 6707.5,15315.11 6869.78,15415.01 7738.31,15415.65 7849.75,15276.2 7097.9,14814.36 6588.12,13244.41 6715.91,12989.54 7015.36,13017.34 7203.37,13477.71 7475.73,13028.98 7739.62,13479.63 7963.14,12990.3 8621.05,12484.57 10955.7,12260.99 11347.55,12740.04 11677.8,15081.99 11851.54,15418.5 12647.04,15418.18 12732.79,15292.08 12249.29,14619.11 12191.18,13337.62 12452.28,13482.53 12727.3,14333.78 13077.07,15439.12 13233.91,15560.71 13945.65,15561.15 14004.74,15400.42 13796.66,15207.83 13125.52,13896.22 13280.23,12521.64 14032.29,11965.34 15127.79,9930.53 16388.69,9348.43 17548.21,9216.42 17647.6,9108.65 17809.88,8651.31 "/>
    </g>
    <g id="svg_4"/>
    <g id="svg_5"/>
    <g id="svg_6"/>
    <g id="svg_7"/>
    <g id="svg_8"/>
    <g id="svg_9"/>
    <g id="svg_10"/>
    <g id="svg_11"/>
    <g id="svg_12"/>
    <g id="svg_13"/>
    <g id="svg_14"/>
    <g id="svg_15"/>
    <g id="svg_16"/>
    <g id="svg_17"/>
    <g id="svg_18"/>
   </g>
  </g>
 </g>
</svg>